<svg width="62" height="61" viewBox="0 0 62 61" fill="none"
    xmlns="http://www.w3.org/2000/svg">
    <path d="M31.1592 60.9688C37.1853 60.9688 43.0761 59.1818 48.0867 55.8339C53.0973 52.4859 57.0025 47.7273 59.3086 42.1599C61.6147 36.5925 62.2181 30.4662 61.0425 24.5559C59.8668 18.6455 56.965 13.2165 52.7038 8.95535C48.4427 4.69422 43.0137 1.79236 37.1033 0.616712C31.193 -0.558931 25.0667 0.0444519 19.4993 2.35056C13.9319 4.65667 9.17329 8.56192 5.82534 13.5725C2.47739 18.583 0.69043 24.4739 0.69043 30.5C0.697422 38.5787 3.90976 46.3245 9.62224 52.037C15.3347 57.7494 23.0805 60.9618 31.1592 60.9688ZM31.1592 14.25C33.1679 14.25 35.1315 14.8457 36.8017 15.9617C38.4719 17.0776 39.7736 18.6638 40.5423 20.5196C41.311 22.3754 41.5122 24.4175 41.1203 26.3876C40.7284 28.3578 39.7611 30.1674 38.3407 31.5878C36.9204 33.0082 35.1107 33.9755 33.1406 34.3674C31.1704 34.7592 29.1284 34.5581 27.2726 33.7894C25.4167 33.0207 23.8306 31.719 22.7146 30.0488C21.5986 28.3786 21.0029 26.415 21.0029 24.4063C21.0029 21.7127 22.073 19.1294 23.9776 17.2247C25.8823 15.32 28.4656 14.25 31.1592 14.25ZM12.2076 46.6688C14.6421 44.095 17.5822 42.0519 20.8434 40.6677C24.1046 39.2836 27.6166 38.5881 31.1592 38.625C34.6997 38.6025 38.2073 39.3045 41.4665 40.6878C44.7256 42.0711 47.6673 44.1065 50.1107 46.6688C50.4561 47.0141 50.7811 47.3797 51.1264 47.7656C48.6499 50.6339 45.5846 52.9349 42.1391 54.5121C38.6935 56.0894 34.9486 56.9058 31.1592 56.9058C27.3698 56.9058 23.6249 56.0894 20.1793 54.5121C16.7337 52.9349 13.6684 50.6339 11.192 47.7656C11.5373 47.3797 11.8623 47.0141 12.2076 46.6688Z" fill="#B7ADC4"/>
</svg>
