<svg id="fi_11384849" enable-background="new 0 0 783.752 783.752" viewBox="0 0 783.752 783.752"
    xmlns="http://www.w3.org/2000/svg">
    <g>
        <g clip-rule="evenodd" fill-rule="evenodd">
            <path d="m328.137 233.978c-53.171 23.356-100.287 56.818-140.58 101.64-13.984 15.56-18.348 36.902-6.674 54.268l73.409 109.189c12.878 19.165 38.899 24.263 58.063 11.377 19.165-12.887 24.263-38.907 11.385-58.072l-49.987-74.341 62.461-50.952c5.288-4.323 6.08-12.119 1.766-17.416-4.323-5.288-12.119-6.08-17.416-1.766l-71.189 58.08c-4.958 4.043-6.014 11.195-2.45 16.5l56.273 83.704c5.264 7.829 3.185 18.455-4.645 23.719-7.829 5.264-18.464 3.185-23.727-4.645l-73.4-109.189c-5.197-7.73-1.691-16.987 4.538-23.917 37.867-42.124 82.153-73.573 132.124-95.518 6.254-2.747 9.1-10.057 6.353-16.31s-10.051-9.098-16.304-6.351z"></path>
            <path d="m439.429 107.588c2.392 5.264 3.729 11.104 3.729 17.259 0 23.026-18.695 41.72-41.729 41.72-23.026 0-41.72-18.695-41.72-41.72s18.695-41.728 41.72-41.728c6.831 0 12.375-5.544 12.375-12.375 0-6.823-5.544-12.375-12.375-12.375-36.679 0-66.47 29.791-66.47 66.479s29.791 66.47 66.47 66.47c36.688 0 66.479-29.783 66.479-66.47 0-9.817-2.137-19.132-5.957-27.522-2.838-6.212-10.181-8.96-16.393-6.13-6.22 2.829-8.959 10.18-6.129 16.392z"></path>
            <path d="m316.042 316.693c-3.638 55.712-8.102 124.377-8.448 131.126l-14.132 276.466c-1.592 31.185 22.432 57.791 53.617 59.383 31.185 1.601 57.799-22.424 59.392-53.609l6.031-118.107 20.254 124.311c5.016 30.822 34.114 51.769 64.936 46.745 30.814-5.016 51.761-34.114 46.744-64.936l-44.137-270.988-7.029-117.447c65.695-39.476 101.17-92.672 106.177-100.526 13.027-15.056 13.604-37.389 1.18-53.171l-95.652-121.573c-14.281-18.15-40.607-21.293-58.757-7.012s-21.293 40.606-7.012 58.757l72.715 92.416-5.998 4.934c-19.569 16.096-45.061 23.117-70.1 19.288-36.605-5.915-72.336-2.31-107.134 10.997-6.377 2.442-9.578 9.603-7.136 15.98 2.442 6.385 9.603 9.578 15.98 7.136 30.665-11.723 62.147-14.9 94.413-9.669.033.008.074.017.107.025 32.01 4.892 64.589-4.075 89.595-24.643l15.345-12.631c5.198-4.273 6.022-11.921 1.865-17.21l-80.198-101.927c-5.833-7.417-4.554-18.166 2.863-24.007 7.417-5.833 18.167-4.546 23.999 2.871l95.651 121.572c5.173 6.567 4.826 15.923-.809 22.093-.536.586-1.015 1.229-1.427 1.906 0 0-35.087 57.28-104.594 96.797-4.092 2.327-6.517 6.79-6.237 11.492l7.524 125.656c.025.421.066.833.132 1.246l44.245 271.615c2.822 17.341-8.959 33.709-26.301 36.531-17.333 2.822-33.701-8.959-36.523-26.293l-38.899-238.829c-1.023-6.245-6.584-10.717-12.903-10.37-6.311.355-11.352 5.412-11.674 11.732l-11.954 233.97c-.899 17.548-15.865 31.061-33.413 30.162-17.539-.891-31.053-15.865-30.162-33.404l14.132-276.466c.346-6.732 4.793-75.215 8.423-130.779.445-6.815-4.727-12.713-11.542-13.159-6.813-.438-12.704 4.726-13.149 11.549z"></path>
            <path d="m265.684 150.752v-26.788c0-1.823 1.196-3.424 2.937-3.952 17.762-5.362 45.202-20.163 45.202-59.499 0-33.395-27.11-60.513-60.514-60.513-33.396 0-60.506 27.118-60.506 60.514 0 6.831 5.544 12.375 12.375 12.375s12.375-5.544 12.375-12.375c0-19.742 16.021-35.764 35.756-35.764 19.742 0 35.764 16.021 35.764 35.764 0 23.801-16.863 32.563-27.604 35.805-12.185 3.68-20.526 14.899-20.534 27.638v26.796c0 6.831 5.552 12.375 12.375 12.375 6.83-.001 12.374-5.545 12.374-12.376z"></path>
            <path d="m265.684 210.837v-12.804c0-6.831-5.544-12.375-12.375-12.375-6.823 0-12.375 5.544-12.375 12.375v12.804c0 6.831 5.552 12.375 12.375 12.375 6.831 0 12.375-5.544 12.375-12.375z"></path>
        </g>
    </g>
    <g></g>
    <g></g>
    <g></g>
    <g></g>
    <g></g>
    <g></g>
    <g></g>
    <g></g>
    <g></g>
    <g></g>
    <g></g>
    <g></g>
    <g></g>
    <g></g>
    <g></g>
</svg>