<svg id="Layer_1" enable-background="new 0 0 20 20" viewBox="0 0 20 20" xmlns="http://www.w3.org/2000/svg"><g><g><path d="m19 10c0 2.08-.71 4.01-1.91 5.53-1.64 2.11-4.21 3.47-7.09 3.47s-5.45-1.36-7.09-3.47c-1.2-1.52-1.91-3.45-1.91-5.53 0-4.97 4.03-9 9-9s9 4.03 9 9z" fill="#95da98"/></g><g><path d="m15.28 2.72c1.08 1.49 1.72 3.31 1.72 5.28 0 2.08-.71 4.01-1.91 5.53-1.64 2.11-4.21 3.47-7.09 3.47-1.98 0-3.8-.65-5.28-1.74.06.09.12.18.19.27 1.64 2.11 4.21 3.47 7.09 3.47s5.45-1.36 7.09-3.47c1.2-1.52 1.91-3.45 1.91-5.53 0-3-1.47-5.64-3.72-7.28z" fill="#7fcc7f"/></g><g><path d="m12.05 11.44c-.09.06-.17.13-.27.18-1.18.62-2.66.79-3.84.04-.35-.22-.63-.49-.88-.79-2.34.34-4.3 1.47-5.36 2.72 0 0 .01.01.01.01.04.05.08.11.12.16.39.48.78.98 1.08 1.52 3.45-3.14 8.52-3.84 12.56-1.4-.68-.94-1.9-1.84-3.42-2.44z" fill="#7fcc7f"/></g><g><path d="m6.11 8.5c-.09-1.04.38-2.15 1.11-2.88.83-.83 2.06-1.25 3.23-1.19.55.03 1.04.19 1.46.44-.68-1.21-1.96-2.04-3.44-2.04-2.19 0-3.96 1.77-3.96 3.96 0 1.52.87 2.82 2.12 3.49-.3-.53-.47-1.13-.52-1.78z" fill="#7fcc7f"/></g><g><path d="m10 19.5c-2.95 0-5.67-1.33-7.48-3.66-1.3-1.65-2.02-3.72-2.02-5.84 0-5.24 4.26-9.5 9.5-9.5s9.5 4.26 9.5 9.5c0 2.12-.72 4.19-2.02 5.84-1.8 2.33-4.53 3.66-7.48 3.66zm0-18c-4.69 0-8.5 3.81-8.5 8.5 0 1.89.64 3.75 1.8 5.22 1.62 2.09 4.06 3.28 6.7 3.28s5.08-1.19 6.7-3.28c1.16-1.47 1.8-3.33 1.8-5.22 0-4.69-3.81-8.5-8.5-8.5z" fill="#2d4356"/></g><g><path d="m17.09 15.53c-1.64 2.11-4.21 3.47-7.09 3.47s-5.45-1.36-7.09-3.47c1.12-1.65 3.87-3.24 7.09-3.24s5.98 1.59 7.09 3.24z" fill="#fff"/></g><g><circle cx="10" cy="8.33" fill="#fff" r="3.96"/></g><g><path d="m15.11 13.72c-1.64 2.05-4.17 3.38-7.01 3.38-1.91 0-3.68-.61-5.14-1.63-.01.02-.04.04-.05.06 1.64 2.11 4.21 3.47 7.09 3.47s5.45-1.36 7.09-3.47c-.43-.64-1.12-1.27-1.98-1.81z" fill="#ededed"/></g><g><path d="m11.68 4.75c.24.51.38 1.08.38 1.68 0 2.19-1.77 3.96-3.96 3.96-.6 0-1.17-.14-1.68-.38.63 1.35 1.99 2.28 3.58 2.28 2.19 0 3.96-1.77 3.96-3.96 0-1.59-.93-2.95-2.28-3.58z" fill="#ededed"/></g><g><path d="m10 19.5c-2.95 0-5.67-1.33-7.48-3.66-.13-.17-.14-.41-.02-.59 1.13-1.67 3.96-3.46 7.5-3.46 3.56 0 6.38 1.79 7.5 3.46.12.18.11.42-.02.59-1.8 2.33-4.53 3.66-7.48 3.66zm-6.46-3.98c1.62 1.9 3.95 2.98 6.46 2.98s4.84-1.08 6.46-2.98c-1.14-1.4-3.61-2.73-6.46-2.73-2.84 0-5.31 1.33-6.46 2.73z" fill="#2d4356"/></g><g><path d="m10 12.79c-2.46 0-4.46-2-4.46-4.46s2-4.46 4.46-4.46 4.46 2 4.46 4.46-2 4.46-4.46 4.46zm0-7.92c-1.91 0-3.46 1.55-3.46 3.46s1.55 3.46 3.46 3.46 3.46-1.55 3.46-3.46-1.55-3.46-3.46-3.46z" fill="#2d4356"/></g></g></svg>