<svg height="512pt" viewBox="0 -10 512.001 512" width="512pt"
    xmlns="http://www.w3.org/2000/svg" id="fi_1669668">
    <g fill-rule="evenodd">
        <path d="m476.117188 164.058594v-30.082032l-142.75-123.972656h-160.292969l-142.75 123.972656v30.082032zm0 0" fill="#60a4ff"></path>
        <path d="m476.117188 164.058594h-132.402344c-4.875 14.53125-13.265625 27.445312-24.148438 37.726562h177.074219v-37.726562zm0 0" fill="#aac0c1"></path>
        <path d="m477.023438 201.785156h-109.609376v32.09375c0 4.078125 3.34375 7.390625 7.425782 7.390625h94.789062c4.082032 0 7.398438-3.3125 7.398438-7.390625v-32.09375zm0 0" fill="#ffc15a"></path>
        <path d="m192.40625 201.785156c-10.882812-10.28125-19.273438-23.195312-24.148438-37.726562h-150.828124v37.726562zm0 0" fill="#aac0c1"></path>
        <path d="m147.222656 233.878906v-32.09375h-109.613281v32.09375c0 4.078125 3.347656 7.390625 7.398437 7.390625h94.816407c4.054687 0 7.398437-3.3125 7.398437-7.390625zm0 0" fill="#ffc15a"></path>
        <path d="m147.222656 201.785156v32.09375c0 4.078125-3.34375 7.390625-7.398437 7.390625h-26.246094v165.300781h277.191406 10.402344v-165.300781h-26.332031c-4.082032 0-7.425782-3.3125-7.425782-7.390625v-32.09375c-76.476562 0-143.96875 0-220.191406 0zm0 0" fill="#eff3f3"></path>
        <path d="m71.34375 241.269531h42.234375v165.300781h-42.234375zm0 0" fill="#ffd89e"></path>
        <path d="m113.578125 406.570312h-78.347656v37.726563h441.511719v-37.726563zm0 0" fill="#60a4ff"></path>
        <path d="m476.742188 444.296875h-447.859376c-10.375 0-18.878906 8.46875-18.878906 18.835937 0 10.398438 8.503906 18.867188 18.878906 18.867188h454.238282c6.773437 0 12.78125-3.628906 16.097656-9.066406v-19.570313c-3.316406-5.4375-9.324219-9.066406-16.097656-9.066406zm0 0" fill="#aac0c1"></path>
        <path d="m192.859375 264.070312h66.5v142.5h-66.5zm0 0" fill="#9bc6ff"></path>
        <path d="m259.359375 264.070312h66.527344v142.5h-66.527344zm0 0" fill="#9bc6ff"></path>
        <path d="m401.171875 241.269531h42.234375v165.300781h-42.234375zm0 0" fill="#ffd89e"></path>
        <path d="m255.984375 42.179688c-51.078125 0-92.519531 41.410156-92.519531 92.449218 0 10.28125 1.703125 20.195313 4.792968 29.429688 4.875 14.53125 13.265626 27.445312 24.148438 37.726562 16.582031 15.691406 38.945312 25.296875 63.578125 25.296875s47.027344-9.605469 63.578125-25.296875c10.886719-10.28125 19.277344-23.195312 24.152344-37.726562 3.117187-9.234375 4.789062-19.148438 4.789062-29.429688.003906-51.039062-41.410156-92.449218-92.519531-92.449218zm0 0" fill="#ffc15a"></path>
    </g>
    <path d="m226.734375 321.820312c-5.523437 0-10.003906 4.476563-10.003906 10.003907v.167969c0 5.523437 4.480469 10.003906 10.003906 10.003906s10-4.476563 10-10.003906v-.167969c0-5.527344-4.476563-10.003907-10-10.003907zm0 0"></path>
    <path d="m292.011719 321.820312c-5.523438 0-10 4.476563-10 10.003907v.167969c0 5.523437 4.476562 10.003906 10 10.003906 5.523437 0 10.003906-4.476563 10.003906-10.003906v-.167969c0-5.527344-4.476563-10.003907-10.003906-10.003907zm0 0"></path>
    <path d="m486.742188 434.53125v-27.960938c0-5.523437-4.476563-10-10-10h-23.332032v-145.296874h16.21875c9.59375 0 17.398438-7.804688 17.398438-17.394532v-22.089844h9.613281c5.523437 0 10.003906-4.480468 10.003906-10.003906v-37.726562c0-5.523438-4.480469-10.003906-10.003906-10.003906h-10.519531v-20.078126c0-2.894531-1.257813-5.652343-3.445313-7.550781l-142.746093-123.972656c-1.820313-1.582031-4.148438-2.453125-6.5625-2.453125h-160.292969c-2.410157 0-4.738281.871094-6.558594 2.453125l-42.4375 36.878906c-4.167969 3.625-4.609375 9.941407-.984375 14.109375 3.621094 4.171875 9.9375 4.613282 14.109375.988282l39.609375-34.425782h152.820312l136.484376 118.535156v15.515626h-109.445313c.023437-.117188.027344-.234376.046875-.351563 1.171875-6.183594 1.789062-12.558594 1.789062-19.074219 0-56.492187-45.988281-102.453125-102.519531-102.453125s-102.523437 45.960938-102.523437 102.453125c0 6.597656.636718 13.050782 1.832031 19.304688.007813.042968.007813.078125.015625.121094h-114.984375v-15.515626l39.1875-34.027343c4.171875-3.625 4.617187-9.941407.996094-14.113281-3.625-4.167969-9.941407-4.613282-14.113281-.992188l-42.628907 37.019531c-2.1875 1.898438-3.445312 4.65625-3.445312 7.550781v20.078126h-2.894531c-5.523438 0-10 4.480468-10 10.003906v37.726562c0 5.523438 4.476562 10.003906 10 10.003906h10.179687v22.089844c0 9.589844 7.804687 17.394532 17.402344 17.394532h16.328125v145.296874h-26.109375c-5.523438 0-10.003907 4.476563-10.003907 10.003907v27.960937c-14.203124 1.796875-25.226562 13.933594-25.226562 28.597656 0 15.917969 12.957031 28.867188 28.882812 28.867188h454.238282c15.925781 0 28.878906-12.949219 28.878906-28.867188 0-14.671874-11.035156-26.816406-25.257812-28.601562zm-53.335938-37.960938h-22.230469v-145.296874h22.230469zm-97.519531 0v-132.5c0-5.523437-4.476563-10-10-10h-133.027344c-5.523437 0-10 4.476563-10 10v132.5h-59.28125v-145.296874h16.246094c9.597656 0 17.402343-7.804688 17.402343-17.394532v-22.089844h31.386719c18.03125 15.742188 41.605469 25.292969 67.371094 25.292969 25.769531 0 49.34375-9.550781 67.375-25.292969h34.050781v22.089844c0 9.589844 7.820313 17.394532 17.429688 17.394532h16.332031v145.296874zm-66.527344 0v-122.496093h46.523437v122.496093zm-66.496094 0v-122.496093h46.492188v122.496093zm264.160157-165.304687h-89.609376v-19.476563h89.609376zm-116.390626-57.203125h136.003907v17.722656h-145.5625c3.757812-5.578125 6.964843-11.523437 9.558593-17.722656zm-94.648437-121.878906c45.503906 0 82.519531 36.984375 82.519531 82.445312 0 45.460938-37.015625 82.449219-82.519531 82.449219-45.5 0-82.515625-36.988281-82.515625-82.449219 0-45.460937 37.015625-82.445312 82.515625-82.445312zm-228.554687 121.878906h133.910156c2.59375 6.199219 5.800781 12.140625 9.558594 17.722656h-143.46875zm20.183593 37.726562h89.609375v19.476563h-89.609375zm33.730469 39.484376h22.230469v145.296874h-22.230469zm385.394531 165.300781v17.722656h-421.507812v-17.722656zm16.378907 55.421875h-454.234376c-4.894531 0-8.878906-3.976563-8.878906-8.863282 0-4.871093 3.984375-8.832031 8.878906-8.832031h454.238282c4.894531 0 8.875 3.960938 8.875 8.832031 0 4.886719-3.984375 8.863282-8.878906 8.863282zm0 0"></path>
    <path d="m288.214844 150.066406c0 7.929688-2.296875 14.332032-6.886719 19.117188-4.59375 4.789062-10.148437 7.960937-16.695313 9.492187v11.726563c0 4.957031-4.226562 9.03125-9.1875 9.03125-4.957031 0-9.011718-4.078125-9.011718-9.03125v-11.644532c-4.082032-.933593-7.769532-2.433593-11.054688-4.53125-3.375-2.125-5.726562-4.019531-7.03125-5.664062l-2.011718-2.605469c-8.304688-10.878906 5.414062-22.488281 13.40625-14.105469.992187 1.019532 1.984374 2.238282 3.175781 3.539063 3.34375 3.710937 8.25 4.308594 12.21875 4.308594 7.566406 0 11.335937-3.117188 11.335937-9.347657 0-2.238281-1.417968-3.964843-4.28125-5.183593-2.863281-1.246094-6.347656-2.324219-10.429687-3.316407-4.082031-.960937-8.164063-2.265624-12.246094-3.878906-4.082031-1.640625-7.539063-4.445312-10.402344-8.441406-2.863281-3.964844-4.308593-9.003906-4.308593-15.125 0-6.144531 1.984374-11.613281 5.839843-16.539062 3.796875-4.871094 9.296875-8.1875 15.929688-9.460938l.027343-10.535156c0-4.957032 4.054688-9.035156 9.015626-9.035156 4.957031 0 9.011718 4.078124 9.011718 9.035156v10.648437c2.863282.621094 5.472656 1.5 7.824219 2.605469 2.351563 1.132812 3.96875 2.039062 4.902344 2.746094l1.363281 1.246094c11.875 8.867187.425781 24.617187-9.808594 16.003906-6.945312-5.835938-22.648437-7.109375-22.648437 3.570312 0 2.265625 1.050781 4.078125 3.144531 5.4375 2.070312 1.386719 4.652344 2.292969 7.710938 2.746094 3.089843.484375 6.433593 1.246094 10.121093 2.292969 3.683594 1.078125 7.058594 2.324219 10.117188 3.769531 3.0625 1.414062 5.640625 3.9375 7.738281 7.5625 2.070312 3.625 3.121094 8.15625 3.121094 13.566406zm0 0"></path>
    <path d="m103.519531 80.675781c-2.933593 0-5.839843-1.285156-7.816406-3.753906-3.449219-4.3125-2.75-10.609375 1.5625-14.058594l.140625-.113281c4.316406-3.453125 10.609375-2.75 14.0625 1.5625 3.449219 4.3125 2.75 10.605469-1.5625 14.058594l-.144531.113281c-1.84375 1.476563-4.050781 2.191406-6.242188 2.191406zm0 0"></path>
</svg>